<svg width="72" height="72" viewBox="0 0 72 72" fill="none" xmlns="http://www.w3.org/2000/svg">
<path d="M35.9903 17.5285C25.7686 17.5285 17.5192 25.7781 17.5192 36C17.5192 46.2219 25.7686 54.4715 35.9903 54.4715C46.212 54.4715 54.4615 46.2219 54.4615 36C54.4615 25.7781 46.212 17.5285 35.9903 17.5285ZM35.9903 48.0051C29.38 48.0051 23.9854 42.6105 23.9854 36C23.9854 29.3895 29.38 23.9949 35.9903 23.9949C42.6007 23.9949 47.9952 29.3895 47.9952 36C47.9952 42.6105 42.6007 48.0051 35.9903 48.0051ZM55.218 12.4671C52.8314 12.4671 50.9041 14.3944 50.9041 16.781C50.9041 19.1676 52.8314 21.0949 55.218 21.0949C57.6045 21.0949 59.5318 19.1766 59.5318 16.781C59.5325 16.2143 59.4214 15.653 59.2049 15.1293C58.9883 14.6056 58.6706 14.1298 58.2699 13.729C57.8692 13.3283 57.3933 13.0106 56.8696 12.794C56.3459 12.5775 55.7847 12.4664 55.218 12.4671ZM71.996 36C71.996 31.0286 72.041 26.1023 71.7618 21.14C71.4827 15.3761 70.1678 10.2606 65.953 6.04576C61.7292 1.82191 56.6229 0.516026 50.8591 0.236837C45.8878 -0.0423517 40.9616 0.00267881 35.9993 0.00267881C31.0281 0.00267881 26.1018 -0.0423517 21.1396 0.236837C15.3758 0.516026 10.2604 1.83091 6.04565 6.04576C1.82187 10.2696 0.516016 15.3761 0.236832 21.14C-0.042351 26.1113 0.00267876 31.0376 0.00267876 36C0.00267876 40.9624 -0.042351 45.8977 0.236832 50.86C0.516016 56.6239 1.83088 61.7394 6.04565 65.9542C10.2694 70.1781 15.3758 71.484 21.1396 71.7632C26.1108 72.0424 31.0371 71.9973 35.9993 71.9973C40.9706 71.9973 45.8968 72.0424 50.8591 71.7632C56.6229 71.484 61.7382 70.1691 65.953 65.9542C70.1768 61.7304 71.4827 56.6239 71.7618 50.86C72.05 45.8977 71.996 40.9714 71.996 36ZM64.0708 57.2363C63.4133 58.8755 62.6208 60.1003 61.351 61.3611C60.0812 62.631 58.8654 63.4235 57.2263 64.081C52.4892 65.9632 41.2408 65.54 35.9903 65.54C30.7399 65.54 19.4825 65.9632 14.7454 64.09C13.1063 63.4325 11.8815 62.64 10.6207 61.3701C9.35082 60.1003 8.5583 58.8845 7.90087 57.2454C6.02764 52.4991 6.45092 41.2505 6.45092 36C6.45092 30.7495 6.02764 19.4918 7.90087 14.7546C8.5583 13.1155 9.35082 11.8907 10.6207 10.6299C11.8905 9.36901 13.1063 8.56747 14.7454 7.91002C19.4825 6.03676 30.7399 6.46004 35.9903 6.46004C41.2408 6.46004 52.4982 6.03676 57.2353 7.91002C58.8744 8.56747 60.0992 9.36 61.36 10.6299C62.6298 11.8997 63.4224 13.1155 64.0798 14.7546C65.953 19.4918 65.5297 30.7495 65.5297 36C65.5297 41.2505 65.953 52.4991 64.0708 57.2363Z" fill="white"/>
</svg>
