<svg width="81" height="80" viewBox="0 0 81 80" fill="none" xmlns="http://www.w3.org/2000/svg">
<path d="M80.4894 40C80.4894 61.8119 62.6814 79.5 40.7067 79.5C18.732 79.5 0.924011 61.8119 0.924011 40C0.924011 18.1881 18.732 0.5 40.7067 0.5C62.6814 0.5 80.4894 18.1881 80.4894 40Z" stroke="white"/>
<path d="M36.7493 40.7719C37.13 41.1499 37.747 41.1499 38.1277 40.7719L38.8166 40.0878C39.1973 39.7098 39.1973 39.0971 38.8166 38.7191L36.6409 36.5592L38.816 34.3987C39.1967 34.0207 39.1967 33.408 38.816 33.03L38.1271 32.3459C37.7464 31.9679 37.1294 31.9679 36.7487 32.3459L33.1951 35.8745C32.8144 36.2525 32.8144 36.8652 33.1951 37.2433L36.7493 40.7719ZM42.5974 40.0884L43.2863 40.7725C43.667 41.1505 44.284 41.1505 44.6647 40.7725L48.2183 37.2439C48.599 36.8658 48.599 36.2531 48.2183 35.8751L44.6647 32.3465C44.284 31.9685 43.667 31.9685 43.2863 32.3465L42.5974 33.0306C42.2167 33.4086 42.2167 34.0213 42.5974 34.3993L44.7725 36.5592L42.5974 38.7197C42.2167 39.0977 42.2167 39.7104 42.5974 40.0884ZM59.2238 50.1076H44.4552C44.4101 51.3058 43.5592 52.0431 42.461 52.0431H38.7575C37.6191 52.0431 36.7463 50.9864 36.7615 50.1076H22.1897C21.6536 50.1076 21.2151 50.5431 21.2151 51.0753V52.0431C21.2151 54.1721 22.9693 55.914 25.1134 55.914H56.3C58.4441 55.914 60.1983 54.1721 60.1983 52.0431V51.0753C60.1983 50.5431 59.7598 50.1076 59.2238 50.1076ZM56.3 27.8495C56.3 26.2527 54.9843 24.9463 53.3763 24.9463H28.0372C26.4291 24.9463 25.1134 26.2527 25.1134 27.8495V48.1721H56.3V27.8495ZM52.4017 44.3011H29.0117V28.8173H52.4017V44.3011Z" fill="white"/>
</svg>
