<svg width="81" height="80" viewBox="0 0 81 80" fill="none" xmlns="http://www.w3.org/2000/svg">
<path d="M80.4894 40C80.4894 61.8119 62.6814 79.5 40.7067 79.5C18.732 79.5 0.924011 61.8119 0.924011 40C0.924011 18.1881 18.732 0.5 40.7067 0.5C62.6814 0.5 80.4894 18.1881 80.4894 40Z" stroke="white"/>
<path d="M32.4769 43.0106H35.9421C36.4016 43.0106 36.8423 42.8294 37.1672 42.5067C37.4921 42.1841 37.6747 41.7465 37.6747 41.2902C37.6747 40.8339 37.4921 40.3963 37.1672 40.0737C36.8423 39.751 36.4016 39.5698 35.9421 39.5698H32.4769C32.0174 39.5698 31.5767 39.751 31.2518 40.0737C30.9269 40.3963 30.7443 40.8339 30.7443 41.2902C30.7443 41.7465 30.9269 42.1841 31.2518 42.5067C31.5767 42.8294 32.0174 43.0106 32.4769 43.0106ZM42.8724 46.4515H32.4769C32.0174 46.4515 31.5767 46.6328 31.2518 46.9554C30.9269 47.278 30.7443 47.7156 30.7443 48.1719C30.7443 48.6282 30.9269 49.0658 31.2518 49.3885C31.5767 49.7111 32.0174 49.8924 32.4769 49.8924H42.8724C43.332 49.8924 43.7726 49.7111 44.0976 49.3885C44.4225 49.0658 44.605 48.6282 44.605 48.1719C44.605 47.7156 44.4225 47.278 44.0976 46.9554C43.7726 46.6328 43.332 46.4515 42.8724 46.4515ZM53.268 22.3655H29.0117C27.6332 22.3655 26.3111 22.9093 25.3364 23.8772C24.3616 24.8451 23.814 26.1579 23.814 27.5268V51.6128C23.814 52.9816 24.3616 54.2944 25.3364 55.2624C26.3111 56.2303 27.6332 56.7741 29.0117 56.7741H53.268C54.6465 56.7741 55.9686 56.2303 56.9434 55.2624C57.9181 54.2944 58.4657 52.9816 58.4657 51.6128V27.5268C58.4657 26.1579 57.9181 24.8451 56.9434 23.8772C55.9686 22.9093 54.6465 22.3655 53.268 22.3655ZM44.605 25.8063V31.4666L41.9888 30.0214C41.7254 29.8704 41.4267 29.7909 41.1225 29.7909C40.8184 29.7909 40.5196 29.8704 40.2562 30.0214L37.6747 31.4666V25.8063H44.605ZM55.0006 51.6128C55.0006 52.0691 54.818 52.5067 54.4931 52.8293C54.1682 53.152 53.7275 53.3332 53.268 53.3332H29.0117C28.5522 53.3332 28.1115 53.152 27.7866 52.8293C27.4617 52.5067 27.2791 52.0691 27.2791 51.6128V27.5268C27.2791 27.0705 27.4617 26.6329 27.7866 26.3102C28.1115 25.9876 28.5522 25.8063 29.0117 25.8063H34.2095V34.4085C34.2113 34.7087 34.2922 35.0033 34.4442 35.2628C34.5962 35.5224 34.8139 35.7379 35.0758 35.8881C35.3392 36.0391 35.638 36.1186 35.9421 36.1186C36.2462 36.1186 36.545 36.0391 36.8084 35.8881L41.1399 33.4967L45.4887 35.9053C45.7476 36.051 46.04 36.128 46.3376 36.1289C46.7971 36.1289 47.2378 35.9477 47.5627 35.625C47.8877 35.3024 48.0702 34.8648 48.0702 34.4085V25.8063H53.268C53.7275 25.8063 54.1682 25.9876 54.4931 26.3102C54.818 26.6329 55.0006 27.0705 55.0006 27.5268V51.6128Z" fill="white"/>
</svg>
