<svg width="82" height="80" viewBox="0 0 82 80" fill="none" xmlns="http://www.w3.org/2000/svg">
<path d="M80.7474 40C80.7474 61.8119 62.9394 79.5 40.9647 79.5C18.99 79.5 1.18201 61.8119 1.18201 40C1.18201 18.1881 18.99 0.5 40.9647 0.5C62.9394 0.5 80.7474 18.1881 80.7474 40Z" stroke="white"/>
<path d="M26.6643 36.7175L31.5498 41.569L42.5439 30.6515L37.6567 25.8L26.6643 36.7158V36.7175ZM48.6508 46.4204L40.0994 37.9287L38.8798 39.1433L47.4311 47.635L48.6508 46.4204ZM51.0952 48.8479L49.8739 50.0607L52.9264 53.092C53.0893 53.2483 53.3075 53.3347 53.534 53.3328C53.7605 53.3308 53.9771 53.2406 54.1373 53.0816C54.2974 52.9226 54.3883 52.7074 54.3902 52.4825C54.3922 52.2576 54.3051 52.041 54.1478 51.8792L51.0952 48.8479ZM32.6658 25.903L35.2139 23.3709C35.5348 23.0521 35.9157 22.7993 36.335 22.6268C36.7543 22.4543 37.2037 22.3655 37.6575 22.3655C38.1114 22.3655 38.5608 22.4543 38.9801 22.6268C39.3993 22.7993 39.7803 23.0521 40.1011 23.3709L44.9866 28.2241C45.6344 28.8675 45.9982 29.74 45.9982 30.6498C45.9982 31.5596 45.6344 32.4321 44.9866 33.0755L42.5439 35.5012L56.5923 49.4517C57.4023 50.2561 57.8574 51.3471 57.8574 52.4847C57.8574 53.6223 57.4023 54.7134 56.5923 55.5178C55.7822 56.3222 54.6836 56.7741 53.538 56.7741C52.3924 56.7741 51.2937 56.3222 50.4837 55.5178L36.4353 41.5673L33.9925 43.993C33.3446 44.6362 32.466 44.9975 31.5498 44.9975C30.6336 44.9975 29.755 44.6362 29.107 43.993L24.2181 39.1433C23.8971 38.8246 23.6425 38.4463 23.4688 38.03C23.295 37.6136 23.2056 37.1674 23.2056 36.7167C23.2056 36.266 23.295 35.8197 23.4688 35.4034C23.6425 34.987 23.8971 34.6087 24.2181 34.2901L26.7662 31.7614C26.535 31.281 26.4594 30.7413 26.5501 30.2165C26.6408 29.6917 26.8931 29.2077 27.2724 28.8313L29.7169 26.4073C30.0959 26.0307 30.5832 25.7801 31.1117 25.6901C31.6402 25.6 32.1838 25.675 32.6675 25.9047L32.6658 25.903Z" fill="white"/>
</svg>
