<svg width="82" height="80" viewBox="0 0 82 80" fill="none" xmlns="http://www.w3.org/2000/svg">
<path d="M51.1991 48.6444C51.1991 47.0453 50.8979 45.6506 50.2919 44.4566C49.6894 43.2663 48.7467 42.2229 47.4744 41.323C46.39 40.5593 44.9369 39.8493 43.1295 39.1932C42.9311 39.1215 42.7928 38.9279 42.7964 38.7128L42.9169 28.3652C42.9204 28.0031 43.2996 27.7521 43.6221 27.9099C44.26 28.2218 44.82 28.6772 45.2949 29.2759C46.1525 30.3551 46.6451 31.7463 46.7656 33.478C46.7816 33.7105 46.8841 33.9282 47.0525 34.0872C47.2208 34.2463 47.4426 34.3348 47.6729 34.335H49.9765C50.4974 34.335 50.9121 33.8868 50.8837 33.3597C50.7491 30.7316 50.0367 28.6305 48.7963 27.0458C47.4815 25.3678 45.6316 24.3316 43.3457 23.9301C43.1047 23.887 42.9275 23.6827 42.9275 23.4353V19.9359C42.9275 19.3766 42.481 18.9248 41.9281 18.9248H40.6735C40.1561 18.9248 39.7379 19.3479 39.7379 19.8714V22.8186L39.699 23.4353C39.6848 23.6719 39.504 23.8655 39.2701 23.9014C36.9736 24.2527 35.1308 25.1778 33.7876 26.6729C32.3629 28.2577 31.64 30.287 31.64 32.761C31.64 35.1883 32.3594 37.1925 33.816 38.7701C35.0032 40.0573 36.7645 41.1437 39.0965 42.0329C39.2914 42.1082 39.4261 42.2982 39.4225 42.5097L39.302 53.2696C39.2985 53.5994 38.9866 53.8361 38.6712 53.7536C37.6576 53.4847 36.8142 53.0079 36.1479 52.3123C35.2229 51.3514 34.6913 50.1072 34.5531 48.4508C34.5141 47.9847 34.103 47.601 33.6423 47.601H31.3139C30.7894 47.601 30.3748 48.0564 30.4102 48.5834C30.5768 51.0789 31.4167 53.0616 32.7988 54.5926C34.2873 56.2419 36.318 57.1956 38.937 57.5111C39.1886 57.5398 39.3835 57.7514 39.3835 58.0095V60.8312C39.3835 61.4408 39.8762 61.9356 40.4751 61.9356H41.5276C42.1018 61.9356 42.5731 61.4587 42.5731 60.8779V58.5115L42.5767 57.9952C42.5802 57.7442 42.768 57.5362 43.0161 57.504C45.5323 57.1669 47.5028 56.267 48.931 54.797C50.4407 53.2481 51.1991 51.1936 51.1991 48.6444ZM37.2501 36.3607C36.2578 35.4464 35.7616 34.2166 35.7616 32.6749C35.7616 31.0113 36.2329 29.7169 37.1721 28.7883C37.6434 28.3222 38.2247 27.9744 38.9122 27.7414C39.2382 27.6302 39.5785 27.8812 39.5749 28.229L39.4792 36.9702C39.4757 37.3503 39.0681 37.5905 38.7385 37.4077C38.1396 37.0742 37.6434 36.7264 37.2501 36.3607ZM45.3799 52.5812C44.7916 53.0796 44.0899 53.4453 43.2713 53.6819C42.9452 53.7751 42.6192 53.5313 42.6227 53.1907L42.729 44.159C42.7326 43.7861 43.126 43.5495 43.4556 43.7144C44.3699 44.177 45.0929 44.6646 45.6138 45.1809C46.5743 46.131 47.0562 47.2999 47.0562 48.6874C47.0598 50.3331 46.4998 51.631 45.3799 52.5812Z" fill="white"/>
<path d="M81.0194 40C81.0194 61.8119 63.2115 79.5 41.2368 79.5C19.2621 79.5 1.45407 61.8119 1.45407 40C1.45407 18.1881 19.2621 0.5 41.2368 0.5C63.2115 0.5 81.0194 18.1881 81.0194 40Z" stroke="white"/>
</svg>
