<svg width="82" height="80" viewBox="0 0 82 80" fill="none" xmlns="http://www.w3.org/2000/svg">
<path d="M80.7474 40C80.7474 61.8119 62.9394 79.5 40.9647 79.5C18.99 79.5 1.18201 61.8119 1.18201 40C1.18201 18.1881 18.99 0.5 40.9647 0.5C62.9394 0.5 80.7474 18.1881 80.7474 40Z" stroke="white"/>
<path d="M48.4444 57.6347H48.4929C49.4077 57.6347 50.2724 57.2769 50.9273 56.6265L55.6264 51.9604C55.7874 51.8008 55.9152 51.6112 56.0024 51.4024C56.0895 51.1937 56.1344 50.97 56.1344 50.744C56.1344 50.518 56.0895 50.2943 56.0024 50.0856C55.9152 49.8768 55.7874 49.6872 55.6264 49.5276L48.6956 42.6455C48.5348 42.4855 48.3439 42.3587 48.1337 42.2721C47.9235 42.1856 47.6982 42.141 47.4706 42.141C47.243 42.141 47.0177 42.1856 46.8075 42.2721C46.5973 42.3587 46.4064 42.4855 46.2456 42.6455L43.4837 45.388C42.2032 45.0095 39.8138 44.1492 38.2995 42.6455C36.7851 41.1417 35.9188 38.7691 35.5376 37.4976L38.2995 34.7551C38.4605 34.5955 38.5883 34.4059 38.6755 34.1971C38.7626 33.9884 38.8075 33.7647 38.8075 33.5387C38.8075 33.3127 38.7626 33.089 38.6755 32.8803C38.5883 32.6715 38.4605 32.4819 38.2995 32.3223L31.3687 25.4402C31.0375 25.1297 30.5992 24.9567 30.1437 24.9567C29.6882 24.9567 29.2499 25.1297 28.9187 25.4402L24.2214 30.1062C23.5629 30.76 23.1921 31.6582 23.206 32.5752C23.2459 35.0252 23.8991 43.535 30.6531 50.2416C37.4071 56.9482 45.977 57.5952 48.4444 57.6347ZM30.1454 29.0894L34.6262 33.5387L32.3858 35.7633C32.1819 35.9652 32.0322 36.2146 31.9501 36.4886C31.8681 36.7627 31.8565 37.0528 31.9162 37.3325C31.9578 37.5303 32.9749 42.2222 35.8512 45.0783C38.7274 47.9344 43.4525 48.9443 43.6518 48.9856C43.9334 49.0453 44.2256 49.0339 44.5017 48.9524C44.7777 48.871 45.0288 48.7221 45.232 48.5194L47.4723 46.2947L51.9531 50.744L48.4773 54.1937C46.3149 54.1575 38.9163 53.5812 33.1031 47.8071C27.2709 42.0158 26.706 34.6433 26.6714 32.5391L30.1454 29.0894ZM54.3927 38.7089H57.8581C57.8581 29.8826 51.1474 23.2258 42.2465 23.2258V26.6669C49.2847 26.6669 54.3927 31.7304 54.3927 38.7089Z" fill="white"/>
<path d="M42.2633 33.5485C45.9071 33.5485 47.4613 35.0918 47.4613 38.7101H50.9267C50.9267 33.1614 47.8512 30.1074 42.2633 30.1074V33.5485Z" fill="white"/>
</svg>
