<svg width="80" height="80" viewBox="0 0 80 80" fill="none" xmlns="http://www.w3.org/2000/svg">
<circle cx="40" cy="40" r="39.5" stroke="#ACACAC"/>
<path d="M49.8925 48.6443C49.8925 47.0452 49.5934 45.6504 48.9916 44.4565C48.3933 43.2661 47.4573 42.2228 46.1939 41.3228C45.1171 40.5591 43.6742 39.8492 41.8795 39.1931C41.6824 39.1214 41.5452 38.9278 41.5487 38.7126L41.6683 28.3651C41.6719 28.003 42.0484 27.752 42.3686 27.9098C43.0021 28.2217 43.5581 28.677 44.0296 29.2758C44.8813 30.355 45.3704 31.7462 45.4901 33.4779C45.5059 33.7104 45.6077 33.9281 45.7749 34.0871C45.9421 34.2462 46.1622 34.3347 46.391 34.3348H48.6784C49.1957 34.3348 49.6074 33.8867 49.5793 33.3596C49.4455 30.7315 48.7382 28.6304 47.5065 27.0457C46.2009 25.3677 44.364 24.3315 42.0941 23.9299C41.8548 23.8869 41.6789 23.6825 41.6789 23.4351V19.9358C41.6789 19.3764 41.2355 18.9247 40.6865 18.9247H39.4407C38.9269 18.9247 38.5117 19.3478 38.5117 19.8712V22.8185L38.473 23.4351C38.4589 23.6718 38.2794 23.8654 38.0472 23.9013C35.7668 24.2526 33.9369 25.1777 32.6031 26.6728C31.1884 28.2575 30.4705 30.2869 30.4705 32.7608C30.4705 35.1882 31.1849 37.1924 32.6313 38.77C33.8102 40.0572 35.5592 41.1436 37.8747 42.0327C38.0683 42.108 38.202 42.2981 38.1985 42.5096L38.0788 53.2695C38.0753 53.5993 37.7656 53.836 37.4524 53.7535C36.446 53.4846 35.6084 53.0077 34.9468 52.3122C34.0284 51.3513 33.5005 50.1071 33.3632 48.4507C33.3245 47.9845 32.9163 47.6009 32.4588 47.6009H30.1468C29.626 47.6009 29.2142 48.0563 29.2494 48.5833C29.4148 51.0788 30.2488 53.0615 31.6213 54.5925C33.0993 56.2418 35.1158 57.1955 37.7164 57.511C37.9662 57.5397 38.1598 57.7512 38.1598 58.0094V60.8311C38.1598 61.4406 38.6489 61.9354 39.2437 61.9354H40.2888C40.8589 61.9354 41.327 61.4586 41.327 60.8777V58.5114L41.3305 57.9951C41.334 57.7441 41.5205 57.5361 41.7669 57.5039C44.2654 57.1668 46.2221 56.2669 47.6403 54.7969C49.1394 53.248 49.8925 51.1935 49.8925 48.6443ZM36.0413 36.3606C35.0559 35.4463 34.5633 34.2165 34.5633 32.6748C34.5633 31.0111 35.0313 29.7168 35.9639 28.7882C36.4319 28.3221 37.009 27.9743 37.6917 27.7412C38.0155 27.6301 38.3533 27.8811 38.3498 28.2289L38.2548 36.9701C38.2513 37.3502 37.8466 37.5904 37.5193 37.4075C36.9246 37.0741 36.4319 36.7263 36.0413 36.3606ZM44.1141 52.5811C43.5299 53.0794 42.8332 53.4451 42.0202 53.6818C41.6965 53.775 41.3727 53.5312 41.3762 53.1906L41.4818 44.1589C41.4853 43.786 41.876 43.5494 42.2032 43.7143C43.1112 44.1768 43.8291 44.6644 44.3464 45.1807C45.3 46.1309 45.7786 47.2997 45.7786 48.6873C45.7822 50.333 45.2261 51.6309 44.1141 52.5811Z" fill="black"/>
</svg>
