<svg width="80" height="80" viewBox="0 0 80 80" fill="none" xmlns="http://www.w3.org/2000/svg">
<path d="M61.7635 34.3591C61.2959 33.4165 57.1317 25.107 54.9517 23.6207C52.8545 22.1906 47.717 19.9854 47.4992 19.8922L47.2484 19.7849L46.9806 19.8364C46.9372 19.8447 42.6155 20.6706 40.43 20.6706C38.2463 20.6706 33.923 19.8447 33.8796 19.8364L33.6117 19.7849L33.3609 19.8922C33.1432 19.9854 28.0056 22.1906 25.9084 23.6206C23.7286 25.1071 19.5643 33.4165 19.0967 34.3591L18.9247 34.7057L19.0588 35.0686C19.1148 35.2206 20.5033 38.8017 26.6227 39.6194L27.1531 39.6903L29.0324 37.0692C29.8778 41.915 28.6718 53.3255 27.1788 58.8181L26.9642 59.6079L27.7296 59.8927C27.8593 59.9411 31.0151 61.0752 40.4301 61.0752C49.8452 61.0752 53.0008 59.9411 53.1306 59.8927L53.8959 59.6079L53.6813 58.8181C52.1885 53.3253 50.9825 41.9149 51.8278 37.0693L53.707 39.6903L54.2374 39.6194C60.3569 38.8017 61.7454 35.2207 61.8015 35.0686L61.9355 34.7057L61.7635 34.3591ZM46.2821 21.7822C46.2765 23.6931 46.0107 27.8632 43.9354 30.0955C43.0209 31.0792 41.8743 31.5573 40.4301 31.5573C38.9859 31.5573 37.8393 31.0792 36.9249 30.0955C34.8495 27.863 34.5837 23.6927 34.5782 21.7822C36.0504 22.0373 38.749 22.4611 40.4301 22.4611C42.1112 22.4611 44.8099 22.0373 46.2821 21.7822ZM59.0687 35.7937C58.3007 36.4813 56.9019 37.3579 54.5257 37.7649L51.3694 33.3625L50.7034 34.6684C50.0616 35.9272 49.4118 38.9612 49.962 46.2667C50.2897 50.619 50.9711 55.2564 51.7365 58.4213C50.3613 58.7326 46.996 59.2847 40.4301 59.2847C34.4561 59.2847 30.7854 58.8015 29.1226 58.4261C29.8885 55.2611 30.5704 50.6212 30.8984 46.2667C31.4485 38.9613 30.7988 35.9272 30.1569 34.6684L29.491 33.3625L26.3343 37.7651C22.7133 37.1483 21.3291 35.4642 20.8961 34.7549C22.6229 31.3247 25.6121 25.988 26.9126 25.1013C28.2611 24.1818 31.1268 22.8462 32.7917 22.0991C32.8252 24.3635 33.2226 28.7353 35.6158 31.3131C36.8692 32.6633 38.4891 33.3479 40.4302 33.3479C42.3713 33.3479 43.9912 32.6633 45.2447 31.3131C47.638 28.7354 48.0352 24.3636 48.0688 22.0991C49.7336 22.8463 52.5994 24.1819 53.9478 25.1014C55.2474 25.9874 58.2356 31.3219 59.963 34.7525C59.8073 35.003 59.5277 35.3825 59.0687 35.7937Z" fill="black" stroke="black"/>
<circle cx="40" cy="40" r="39.5" stroke="#ACACAC"/>
</svg>
