<svg width="80" height="80" viewBox="0 0 80 80" fill="none" xmlns="http://www.w3.org/2000/svg">
<path d="M43.4988 56.4401C43.1734 56.5212 42.8417 56.5932 42.5125 56.6538C41.6517 56.8139 41.0827 57.6417 41.2419 58.5032C41.3205 58.927 41.5612 59.28 41.888 59.5104C42.2249 59.7475 42.6535 59.8545 43.0903 59.7733C43.4824 59.7005 43.8776 59.6149 44.2654 59.5182C45.1153 59.3066 45.6331 58.4456 45.4211 57.5961C45.2095 56.7458 44.3493 56.2284 43.4988 56.4401Z" fill="black"/>
<path d="M55.2286 35.1793C55.3398 35.5142 55.5519 35.7875 55.8198 35.9764C56.2171 36.2562 56.7369 36.3504 57.233 36.1863C58.0648 35.9102 58.5154 35.0133 58.2402 34.182C58.1149 33.8031 57.9758 33.4229 57.8276 33.0528C57.5022 32.2394 56.5796 31.8434 55.7658 32.1688C54.9528 32.4939 54.5566 33.4168 54.8823 34.2305C55.0068 34.5416 55.1234 34.8609 55.2286 35.1793Z" fill="black"/>
<path d="M48.6531 54.1753C48.3733 54.36 48.0845 54.5388 47.7935 54.7063C47.0345 55.1442 46.7745 56.1144 47.2122 56.8731C47.331 57.0794 47.4893 57.2481 47.6716 57.3771C48.1609 57.7213 48.8254 57.7729 49.3787 57.4542C49.7246 57.2547 50.0685 57.0425 50.4017 56.8221C51.1323 56.3394 51.3334 55.3553 50.8505 54.6243C50.3676 53.8931 49.3839 53.6923 48.6531 54.1753Z" fill="black"/>
<path d="M59.2265 39.6095C59.192 38.734 58.4546 38.0526 57.5788 38.0868C56.7042 38.1213 56.0223 38.859 56.0566 39.7341C56.0698 40.0687 56.0732 40.4083 56.0655 40.7426C56.0532 41.2916 56.3217 41.781 56.739 42.0751C56.9876 42.2502 57.2893 42.3561 57.6164 42.3636C58.4919 42.383 59.2174 41.6886 59.2368 40.8127C59.2456 40.4133 59.2422 40.0087 59.2265 39.6095Z" fill="black"/>
<path d="M54.9698 50.0027C54.2678 49.476 53.2745 49.619 52.7488 50.3197C52.5474 50.5881 52.3354 50.8531 52.1182 51.1083C51.5508 51.775 51.631 52.7763 52.2976 53.3442C52.3356 53.3764 52.3741 53.406 52.4139 53.4338C53.0767 53.9011 53.9978 53.7937 54.5337 53.1649C54.7929 52.8604 55.0457 52.5438 55.2863 52.2233C55.8122 51.5225 55.6699 50.5286 54.9698 50.0027Z" fill="black"/>
<path d="M57.3014 44.2689C56.4656 44.0068 55.5754 44.4721 55.3135 45.308C55.2132 45.6273 55.1021 45.9482 54.9822 46.2624C54.7188 46.9542 54.9712 47.7153 55.5496 48.1232C55.6557 48.1978 55.7726 48.2609 55.8996 48.3089C56.718 48.6212 57.6344 48.2106 57.9464 47.3919C58.0888 47.0183 58.2209 46.6365 58.3404 46.2569C58.6021 45.4208 58.1371 44.5309 57.3014 44.2689Z" fill="black"/>
<path d="M36.5785 56.668C35.1604 56.4134 33.8 55.9798 32.51 55.3751C32.4948 55.3671 32.4811 55.358 32.4651 55.3507C32.1611 55.2076 31.8576 55.0544 31.5635 54.8942C31.5624 54.8931 31.5606 54.8923 31.559 54.8916C31.0193 54.5944 30.4926 54.2656 29.9809 53.9054C22.5194 48.6493 20.7253 38.3027 25.9818 30.8412C27.1247 29.2194 28.5079 27.8663 30.05 26.7939C30.069 26.7806 30.088 26.7675 30.1068 26.7542C35.5408 23.01 42.9192 22.7577 48.6892 26.6052L47.45 28.3957C47.1054 28.8941 47.3174 29.2573 47.9205 29.203L53.3036 28.7211C53.9075 28.6668 54.2687 28.1444 54.1062 27.5612L52.6607 22.353C52.4989 21.7691 52.0845 21.6992 51.7397 22.1975L50.4975 23.9923C46.2631 21.1498 41.1844 20.066 36.1435 20.9401C35.6358 21.0279 35.1352 21.1355 34.6415 21.2607C34.6376 21.2614 34.6346 21.2618 34.6315 21.2625C34.6125 21.2671 34.5931 21.2733 34.5745 21.2785C30.2277 22.3948 26.4351 24.93 23.7289 28.5473C23.706 28.5743 23.6825 28.6008 23.661 28.6302C23.571 28.7514 23.4817 28.8754 23.3943 28.9994C23.2513 29.2027 23.1103 29.411 22.9754 29.6193C22.9586 29.6444 22.9457 29.6699 22.9309 29.6953C20.6977 33.1559 19.6205 37.1567 19.8052 41.2298C19.8057 41.2432 19.8049 41.2567 19.8052 41.2704C19.8231 41.6683 19.8547 42.0717 19.8975 42.4688C19.8998 42.4944 19.9055 42.5186 19.9098 42.5443C19.9541 42.9436 20.0096 43.3438 20.0793 43.744C20.787 47.8269 22.713 51.5009 25.5991 54.3596C25.6058 54.3663 25.6127 54.3736 25.6195 54.3806C25.6219 54.3832 25.6245 54.3846 25.6268 54.387C26.4022 55.1518 27.2456 55.8592 28.1537 56.4988C30.5303 58.1734 33.1767 59.2804 36.0187 59.7904C36.881 59.9453 37.7048 59.3713 37.8595 58.5094C38.0141 57.6469 37.4406 56.8225 36.5785 56.668Z" fill="black"/>
<path d="M38.5399 27.5586C37.8305 27.5586 37.256 28.1337 37.256 28.842V41.6278L48.9497 47.6728C49.1379 47.7702 49.3394 47.8161 49.5377 47.8161C50.0022 47.8161 50.4508 47.5632 50.6788 47.1219C51.0041 46.4921 50.758 45.7183 50.1281 45.393L39.8223 40.065V28.842C39.8222 28.1337 39.2483 27.5586 38.5399 27.5586Z" fill="black"/>
<circle cx="40" cy="40" r="39.5" stroke="#ACACAC"/>
</svg>
