<svg width="80" height="80" viewBox="0 0 80 80" fill="none" xmlns="http://www.w3.org/2000/svg">
<path d="M39.9946 29.7381C34.3159 29.7381 29.7329 34.3212 29.7329 40C29.7329 45.6788 34.3159 50.2619 39.9946 50.2619C45.6734 50.2619 50.2564 45.6788 50.2564 40C50.2564 34.3212 45.6734 29.7381 39.9946 29.7381ZM39.9946 46.6695C36.3222 46.6695 33.3252 43.6725 33.3252 40C33.3252 36.3275 36.3222 33.3305 39.9946 33.3305C43.667 33.3305 46.664 36.3275 46.664 40C46.664 43.6725 43.667 46.6695 39.9946 46.6695ZM50.6766 26.9262C49.3508 26.9262 48.2801 27.9969 48.2801 29.3228C48.2801 30.6487 49.3508 31.7194 50.6766 31.7194C52.0025 31.7194 53.0732 30.6537 53.0732 29.3228C53.0736 29.0079 53.0119 28.6961 52.8916 28.4052C52.7713 28.1142 52.5948 27.8499 52.3722 27.6272C52.1495 27.4046 51.8852 27.2281 51.5942 27.1078C51.3033 26.9875 50.9915 26.9258 50.6766 26.9262ZM59.9978 40C59.9978 37.2381 60.0228 34.5013 59.8677 31.7444C59.7126 28.5423 58.9821 25.7003 56.6406 23.3588C54.294 21.0122 51.4572 20.2867 48.2551 20.1316C45.4932 19.9765 42.7564 20.0015 39.9996 20.0015C37.2378 20.0015 34.501 19.9765 31.7442 20.1316C28.5421 20.2867 25.7002 21.0172 23.3587 23.3588C21.0122 25.7053 20.2867 28.5423 20.1316 31.7444C19.9765 34.5063 20.0015 37.2431 20.0015 40C20.0015 42.7569 19.9765 45.4987 20.1316 48.2556C20.2867 51.4577 21.0172 54.2997 23.3587 56.6412C25.7052 58.9878 28.5421 59.7133 31.7442 59.8684C34.506 60.0235 37.2428 59.9985 39.9996 59.9985C42.7614 59.9985 45.4982 60.0235 48.2551 59.8684C51.4572 59.7133 54.299 58.9828 56.6406 56.6412C58.9871 54.2947 59.7126 51.4577 59.8677 48.2556C60.0278 45.4987 59.9978 42.7619 59.9978 40ZM55.5949 51.798C55.2296 52.7086 54.7893 53.389 54.0839 54.0895C53.3784 54.795 52.703 55.2353 51.7924 55.6005C49.1606 56.6462 42.9115 56.4111 39.9946 56.4111C37.0777 56.4111 30.8236 56.6462 28.1919 55.6055C27.2813 55.2403 26.6008 54.8 25.9004 54.0945C25.1949 53.389 24.7546 52.7136 24.3894 51.803C23.3487 49.1662 23.5838 42.917 23.5838 40C23.5838 37.083 23.3487 30.8288 24.3894 28.197C24.7546 27.2864 25.1949 26.606 25.9004 25.9055C26.6058 25.205 27.2813 24.7597 28.1919 24.3945C30.8236 23.3538 37.0777 23.5889 39.9946 23.5889C42.9115 23.5889 49.1657 23.3538 51.7974 24.3945C52.708 24.7597 53.3884 25.2 54.0889 25.9055C54.7943 26.611 55.2346 27.2864 55.5999 28.197C56.6406 30.8288 56.4054 37.083 56.4054 40C56.4054 42.917 56.6406 49.1662 55.5949 51.798Z" fill="black"/>
<circle cx="40" cy="40" r="39.5" stroke="#ACACAC"/>
</svg>
