<svg width="80" height="80" viewBox="0 0 80 80" fill="none" xmlns="http://www.w3.org/2000/svg">
<circle cx="40" cy="40" r="39.5" stroke="#ACACAC"/>
<path fill-rule="evenodd" clip-rule="evenodd" d="M40.5 64.5789C39.9936 64.5789 39.4996 64.4224 39.0863 64.1309C38.3453 63.6038 20.9295 51.0749 21.0002 35.4224C21.0002 24.7177 29.7483 16 40.5 16C51.2517 16 59.9998 24.7177 59.9998 35.4321C60.0705 51.0749 42.6547 63.6038 41.9137 64.1309C41.5004 64.4224 41.0064 64.5789 40.5 64.5789ZM55.1248 35.4418C55.1248 27.3945 48.5656 20.858 40.5 20.858C32.4344 20.858 25.8752 27.3945 25.8752 35.4321C25.824 46.2218 36.5732 55.9014 40.5 59.0785C44.4292 55.9014 55.176 46.2218 55.1248 35.4418ZM40.3284 45.079C44.9574 45.079 48.7099 41.3264 48.7099 36.6974C48.7099 32.0684 44.9574 28.3158 40.3284 28.3158C35.6994 28.3158 31.9468 32.0684 31.9468 36.6974C31.9468 41.3264 35.6994 45.079 40.3284 45.079Z" fill="black"/>
</svg>
