<svg width="80" height="80" viewBox="0 0 80 80" fill="none" xmlns="http://www.w3.org/2000/svg">
<path d="M58.5714 25H21.4286C20.6384 25 20 25.6213 20 26.3904V54.1979C20 54.9669 20.6384 55.5882 21.4286 55.5882H58.5714C59.3616 55.5882 60 54.9669 60 54.1979V26.3904C60 25.6213 59.3616 25 58.5714 25ZM56.7857 29.8142V52.4599H23.2143V29.8142L21.9821 28.88L23.7366 26.6858L25.6473 28.1327H54.3571L56.2679 26.6858L58.0223 28.88L56.7857 29.8142ZM54.3571 28.1283L40 38.9906L25.6429 28.1283L23.7321 26.6815L21.9777 28.8757L23.2098 29.8098L38.4598 41.3499C38.8984 41.6815 39.4379 41.8615 39.9933 41.8615C40.5487 41.8615 41.0882 41.6815 41.5268 41.3499L56.7857 29.8142L58.0179 28.88L56.2634 26.6858L54.3571 28.1283Z" fill="black"/>
<circle cx="40" cy="40" r="39.5" stroke="#ACACAC"/>
</svg>
