<svg width="80" height="80" viewBox="0 0 80 80" fill="none" xmlns="http://www.w3.org/2000/svg">
<path d="M58.2552 26.3342L52.9301 21.0149C52.2801 20.365 51.4101 20 50.4901 20C49.5701 20 48.7001 20.36 48.0501 21.0149L42.3151 26.7392C41.6651 27.3891 41.3001 28.264 41.3001 29.1839C41.3001 30.1087 41.6601 30.9736 42.3151 31.6285L46.7951 36.113C45.7745 38.4906 44.3081 40.6509 42.4751 42.4772C40.6401 44.322 38.4951 45.7768 36.1151 46.8067L31.6351 42.3222C30.985 41.6723 30.115 41.3073 29.195 41.3073C28.7413 41.3057 28.2917 41.3946 27.8727 41.5688C27.4537 41.7431 27.0737 41.9992 26.755 42.3222L21.015 48.0465C20.365 48.6964 20 49.5713 20 50.4912C20 51.4161 20.36 52.281 21.015 52.9359L26.335 58.2552C27.445 59.3651 28.975 60 30.545 60C30.87 60 31.185 59.975 31.5051 59.92C38.1251 58.8301 44.6951 55.3056 50.0001 50.0063C55.3002 44.6969 58.8202 38.1277 59.9202 31.5036C60.2352 29.6238 59.6052 27.689 58.2552 26.3342ZM56.3752 30.9086C55.4002 36.8029 52.2301 42.6822 47.4551 47.4566C42.6801 52.231 36.8051 55.4006 30.91 56.3755C30.17 56.5004 29.41 56.2505 28.87 55.7155L23.645 50.4912L29.185 44.9469L35.1751 50.9461L35.2201 50.9911L36.3001 50.5912C39.5747 49.3874 42.5484 47.486 45.0151 45.0188C47.4817 42.5516 49.3823 39.5776 50.5851 36.303L50.9851 35.2231L44.9451 29.1889L50.4851 23.6445L55.7102 28.8689C56.2502 29.4088 56.5002 30.1687 56.3752 30.9086Z" fill="black"/>
<circle cx="40" cy="40" r="39.5" stroke="#ACACAC"/>
</svg>
