<svg width="33" height="33" viewBox="0 0 33 33" fill="none" xmlns="http://www.w3.org/2000/svg">
<path d="M31.68 0H1.32C0.589875 0 0 0.589875 0 1.32V31.68C0 32.4101 0.589875 33 1.32 33H31.68C32.4101 33 33 32.4101 33 31.68V1.32C33 0.589875 32.4101 0 31.68 0ZM30.36 30.36H22.7659V20.2208H27.0559L27.6994 15.2419H22.7659V12.0615C22.7659 10.6178 23.166 9.636 25.2326 9.636H27.8685V5.181C27.4106 5.11913 25.8473 4.983 24.024 4.983C20.2208 4.983 17.6179 7.30538 17.6179 11.5665V15.2378H13.3196V20.2166H17.622V30.36H2.64V2.64H30.36V30.36Z" fill="white"/>
</svg>
