<svg width="17" height="20" viewBox="0 0 17 20" fill="none" xmlns="http://www.w3.org/2000/svg">
<path fill-rule="evenodd" clip-rule="evenodd" d="M8.02817 20C7.81968 20 7.61632 19.9355 7.44613 19.8155C7.14107 19.5985 -0.0290134 14.4404 8.83467e-05 7.99621C8.83467e-05 3.58909 3.60169 0 8.02817 0C12.4547 0 16.0562 3.58909 16.0562 8.00021C16.0854 14.4404 8.91527 19.5985 8.6102 19.8155C8.44002 19.9355 8.23666 20 8.02817 20ZM14.0492 8.00421C14.0492 4.69112 11.3488 2.00005 8.02817 2.00005C4.70755 2.00005 2.00711 4.69112 2.00711 8.00021C1.98603 12.4423 6.41151 16.4274 8.02817 17.7355C9.64583 16.4274 14.0703 12.4423 14.0492 8.00421ZM7.95775 11.9718C9.86352 11.9718 11.4085 10.4269 11.4085 8.52113C11.4085 6.61536 9.86352 5.07042 7.95775 5.07042C6.05198 5.07042 4.50704 6.61536 4.50704 8.52113C4.50704 10.4269 6.05198 11.9718 7.95775 11.9718Z" fill="white"/>
</svg>
