<svg width="19" height="19" viewBox="0 0 19 19" fill="none" xmlns="http://www.w3.org/2000/svg">
<path d="M18.1712 3.00875L15.6418 0.482065C15.3331 0.173353 14.9198 0 14.4828 0C14.0458 0 13.6326 0.170979 13.3238 0.482065L10.5997 3.2011C10.2909 3.50981 10.1175 3.92538 10.1175 4.36233C10.1175 4.80165 10.2885 5.21247 10.5997 5.52356L12.7277 7.65367C12.2429 8.78304 11.5464 9.80918 10.6757 10.6767C9.80404 11.5529 8.78516 12.244 7.65466 12.7332L5.52665 10.6031C5.2179 10.2943 4.80465 10.121 4.36764 10.121C4.1521 10.1202 3.93856 10.1624 3.73954 10.2452C3.54052 10.328 3.36003 10.4496 3.20864 10.6031L0.482127 13.3221C0.173376 13.6308 0 14.0464 0 14.4833C0 14.9226 0.171001 15.3335 0.482127 15.6445L3.00914 18.1712C3.53639 18.6984 4.26314 19 5.0089 19C5.16327 19 5.3129 18.9881 5.4649 18.962C8.60941 18.4443 11.7302 16.7702 14.2501 14.253C16.7676 11.731 18.4396 8.61067 18.9621 5.46419C19.1117 4.5713 18.8125 3.65229 18.1712 3.00875ZM17.2782 5.1816C16.8151 7.98138 15.3093 10.774 13.0412 13.0419C10.773 15.3097 7.98241 16.8153 5.18227 17.2783C4.83077 17.3377 4.46977 17.219 4.21327 16.9649L1.73138 14.4833L4.36289 11.8498L7.20816 14.6994L7.22953 14.7208L7.74253 14.5308C9.29799 13.959 10.7105 13.0558 11.8822 11.8839C13.0538 10.712 13.9566 9.29937 14.5279 7.74391L14.7179 7.23097L11.8489 4.3647L14.4804 1.73116L16.9623 4.21272C17.2188 4.46919 17.3376 4.83015 17.2782 5.1816Z" fill="white"/>
</svg>
