<svg width="263" height="117" viewBox="0 0 263 117" fill="none" xmlns="http://www.w3.org/2000/svg">
<path d="M103.46 -35L83.6025 42.2921L0.0207825 -12.3131V-9.12914L84.1012 45.7282C84.2711 45.7715 84.4479 45.7809 84.6214 45.7558C84.795 45.7306 84.9619 45.6714 85.1125 45.5816C85.2632 45.4918 85.3947 45.3732 85.4994 45.2324C85.6042 45.0917 85.6802 44.9316 85.7231 44.7615L106.221 -35H103.46Z" fill="url(#paint0_linear)" fill-opacity="0.3"/>
<path d="M87.9698 42.6964L146.76 -18.1873L223.024 27.901L87.9698 42.6964ZM145.579 -20.8144L83.4818 43.5055C83.292 43.7038 83.1677 43.9556 83.1256 44.227C83.0836 44.4984 83.1258 44.7761 83.2467 45.0226C83.3675 45.2691 83.5611 45.4725 83.8013 45.6053C84.0415 45.738 84.3166 45.7937 84.5894 45.7647L227.192 30.1497C227.477 30.1324 227.749 30.0242 227.969 29.841C228.188 29.6578 228.343 29.4092 228.411 29.1316C228.479 28.8539 228.456 28.5618 228.347 28.2979C228.237 28.0339 228.046 27.812 227.801 27.6646L147.232 -21.0193C146.973 -21.1752 146.667 -21.2384 146.367 -21.1983C146.067 -21.1582 145.789 -21.0173 145.579 -20.7986V-20.8144Z" fill="url(#paint1_linear)" fill-opacity="0.3"/>
<path d="M144.771 -17.5616L114.782 151.518L6.55084 46.9632L144.771 -17.5616ZM116.982 154.44L147.857 -19.5949C147.907 -19.8386 147.889 -20.0915 147.804 -20.3253C147.719 -20.5591 147.571 -20.7648 147.376 -20.9195C147.181 -21.0741 146.947 -21.1716 146.701 -21.2012C146.454 -21.2308 146.204 -21.1913 145.978 -21.087L3.25439 45.6392C3.13219 45.766 3.03616 45.9157 2.97186 46.0798C2.90756 46.2438 2.87621 46.419 2.87962 46.5952C2.88304 46.7713 2.92114 46.9451 2.99176 47.1065C3.06238 47.268 3.16411 47.4139 3.29114 47.5359L114.677 155.117C114.847 155.302 115.064 155.435 115.305 155.502C115.546 155.569 115.8 155.567 116.04 155.496C116.28 155.426 116.495 155.289 116.662 155.103C116.828 154.916 116.939 154.686 116.982 154.44Z" fill="url(#paint2_linear)" fill-opacity="0.3"/>
<path d="M116.95 153.84L85.7181 44.0624C85.6604 43.8511 85.5518 43.6572 85.4018 43.4976C85.2519 43.338 85.0651 43.2177 84.8578 43.1472C84.6506 43.0767 84.4293 43.0581 84.2132 43.0931C83.9971 43.1281 83.7929 43.2156 83.6185 43.3479L0.0210419 93.1982V96.3085L83.6395 46.4635L113.848 152.721L0.0210419 144.036V146.726L115.565 155.543C115.779 155.558 115.995 155.522 116.192 155.437C116.39 155.351 116.564 155.22 116.7 155.053C116.836 154.886 116.93 154.688 116.974 154.477C117.017 154.266 117.009 154.048 116.95 153.84Z" fill="url(#paint3_linear)" fill-opacity="0.3"/>
<path d="M5.23335 47.4356C6.37766 46.0958 4.34625 44.3515 3.20194 45.6912L-4.1008e-05 49.4426V53.5618L5.2491 47.4356H5.23335Z" fill="url(#paint4_linear)" fill-opacity="0.3"/>
<path d="M226.316 31.7262L259.91 203.008L118.005 153.62L226.316 31.7262ZM262.976 204.752L228.426 28.5423C228.376 28.2985 228.26 28.0733 228.089 27.8918C227.919 27.7103 227.702 27.5796 227.462 27.5142C227.222 27.4489 226.969 27.4514 226.73 27.5216C226.492 27.5918 226.278 27.7269 226.111 27.9118L114.399 153.767C114.341 153.933 114.317 154.109 114.327 154.284C114.337 154.46 114.381 154.631 114.458 154.789C114.535 154.948 114.642 155.089 114.773 155.206C114.904 155.322 115.057 155.412 115.223 155.469L261.149 206.244C261.372 206.337 261.617 206.367 261.856 206.332C262.095 206.297 262.32 206.198 262.508 206.044C262.695 205.891 262.838 205.69 262.92 205.463C263.002 205.235 263.022 204.99 262.976 204.752Z" fill="url(#paint5_linear)" fill-opacity="0.3"/>
<path d="M228.358 29.2357C228.93 27.565 226.394 26.698 225.822 28.3636L148.114 254.586C148.065 254.727 148.037 254.874 148.03 255.023H150.797L228.358 29.2357Z" fill="url(#paint6_linear)" fill-opacity="0.3"/>
<defs>
<linearGradient id="paint0_linear" x1="53.1209" y1="-35" x2="53.1209" y2="45.7695" gradientUnits="userSpaceOnUse">
<stop stop-color="#92CFD0"/>
<stop offset="1" stop-color="#3B73B8"/>
</linearGradient>
<linearGradient id="paint1_linear" x1="155.78" y1="-21.21" x2="155.78" y2="45.7722" gradientUnits="userSpaceOnUse">
<stop stop-color="#92CFD0"/>
<stop offset="1" stop-color="#3B73B8"/>
</linearGradient>
<linearGradient id="paint2_linear" x1="75.382" y1="-21.2108" x2="75.382" y2="155.551" gradientUnits="userSpaceOnUse">
<stop stop-color="#92CFD0"/>
<stop offset="1" stop-color="#3B73B8"/>
</linearGradient>
<linearGradient id="paint3_linear" x1="58.5112" y1="43.0759" x2="58.5112" y2="155.546" gradientUnits="userSpaceOnUse">
<stop stop-color="#92CFD0"/>
<stop offset="1" stop-color="#3B73B8"/>
</linearGradient>
<linearGradient id="paint4_linear" x1="2.78587" y1="45.2101" x2="2.78587" y2="53.5618" gradientUnits="userSpaceOnUse">
<stop stop-color="#92CFD0"/>
<stop offset="1" stop-color="#3B73B8"/>
</linearGradient>
<linearGradient id="paint5_linear" x1="188.662" y1="27.467" x2="188.662" y2="206.346" gradientUnits="userSpaceOnUse">
<stop stop-color="#92CFD0"/>
<stop offset="1" stop-color="#3B73B8"/>
</linearGradient>
<linearGradient id="paint6_linear" x1="188.236" y1="27.467" x2="188.236" y2="255.023" gradientUnits="userSpaceOnUse">
<stop stop-color="#92CFD0"/>
<stop offset="1" stop-color="#3B73B8"/>
</linearGradient>
</defs>
</svg>
