<svg width="134" height="121" viewBox="0 0 134 121" fill="none" xmlns="http://www.w3.org/2000/svg">
<path d="M133.433 47.5997L97.8723 38.4638L122.995 0.00973117L121.53 0.00973115L96.2914 38.6932C96.2715 38.7714 96.2672 38.8527 96.2787 38.9325C96.2903 39.0124 96.3175 39.0892 96.3589 39.1585C96.4002 39.2278 96.4548 39.2883 96.5195 39.3365C96.5843 39.3847 96.6579 39.4197 96.7362 39.4394L133.433 48.87L133.433 47.5997Z" fill="url(#paint0_linear)" fill-opacity="0.3"/>
<path d="M97.686 40.4732L125.697 67.5212L104.493 102.609L97.686 40.4732ZM126.906 66.9778L97.3138 38.4084C97.2225 38.3211 97.1067 38.2639 96.9818 38.2445C96.857 38.2251 96.7292 38.2446 96.6158 38.3002C96.5024 38.3558 96.4088 38.4449 96.3477 38.5554C96.2866 38.6659 96.261 38.7924 96.2743 38.9179L103.458 104.526C103.466 104.657 103.516 104.783 103.6 104.883C103.685 104.984 103.799 105.056 103.927 105.087C104.055 105.118 104.189 105.108 104.31 105.057C104.432 105.007 104.534 104.919 104.602 104.806L127 67.7386C127.072 67.619 127.101 67.4786 127.082 67.3405C127.064 67.2023 126.999 67.0744 126.899 66.9778L126.906 66.9778Z" fill="url(#paint1_linear)" fill-opacity="0.3"/>
<path d="M125.409 66.6059L47.6196 52.809L95.7231 3.01413L125.409 66.6059ZM46.2757 53.8209L126.345 68.0259C126.457 68.0489 126.573 68.0404 126.681 68.0014C126.789 67.9623 126.883 67.8942 126.954 67.8046C127.026 67.715 127.07 67.6074 127.084 67.4938C127.098 67.3803 127.079 67.2652 127.031 67.1613L96.3323 1.49751C96.2739 1.44128 96.205 1.39711 96.1295 1.36752C96.0541 1.33794 95.9735 1.32352 95.8924 1.32509C95.8114 1.32666 95.7314 1.34419 95.6572 1.37668C95.5829 1.40916 95.5158 1.45597 95.4596 1.51442L45.9638 52.7607C45.8791 52.8385 45.8178 52.9385 45.787 53.0493C45.7562 53.1602 45.7571 53.2774 45.7895 53.3877C45.822 53.4981 45.8847 53.5971 45.9706 53.6737C46.0566 53.7502 46.1622 53.8012 46.2757 53.8209Z" fill="url(#paint2_linear)" fill-opacity="0.3"/>
<path d="M46.5516 53.8066L97.0578 39.4374C97.1551 39.4108 97.2443 39.3609 97.3177 39.2919C97.3911 39.2229 97.4465 39.1369 97.4789 39.0416C97.5114 38.9462 97.5199 38.8444 97.5038 38.745C97.4877 38.6456 97.4475 38.5517 97.3866 38.4714L74.4516 0.0101201L73.0206 0.0101201L95.9531 38.481L47.0665 52.3794L51.0622 0.0101198L49.8246 0.0101198L45.7684 53.1691C45.7611 53.2679 45.7778 53.367 45.8171 53.4579C45.8563 53.5489 45.9169 53.6291 45.9938 53.6917C46.0707 53.7542 46.1615 53.7974 46.2586 53.8174C46.3557 53.8374 46.4562 53.8337 46.5516 53.8066Z" fill="url(#paint3_linear)" fill-opacity="0.3"/>
<path d="M95.5059 2.40777C96.1223 2.93425 96.9248 1.99964 96.3084 1.47317L94.5825 1.04672e-05L92.6874 1.04446e-05L95.5059 2.41502L95.5059 2.40777Z" fill="url(#paint4_linear)" fill-opacity="0.3"/>
<path d="M102.733 104.123L23.9306 119.579L46.6529 54.2918L102.733 104.123ZM23.1281 120.989L104.198 105.094C104.31 105.071 104.414 105.017 104.497 104.939C104.581 104.861 104.641 104.761 104.671 104.65C104.701 104.54 104.7 104.423 104.668 104.314C104.635 104.204 104.573 104.105 104.488 104.029L46.5852 52.6327C46.5089 52.606 46.428 52.5947 46.3473 52.5993C46.2665 52.604 46.1875 52.6245 46.1147 52.6597C46.042 52.6949 45.9769 52.7442 45.9232 52.8046C45.8695 52.8651 45.8284 52.9355 45.802 53.0119L22.4416 120.149C22.399 120.252 22.385 120.364 22.4012 120.474C22.4174 120.584 22.4631 120.688 22.5335 120.774C22.6039 120.86 22.6964 120.926 22.8011 120.964C22.9058 121.002 23.0188 121.01 23.1281 120.989Z" fill="url(#paint5_linear)" fill-opacity="0.3"/>
<path d="M27.2013 106.468L0.966786 69.0498L45.3791 54.1952L27.2013 106.468ZM-0.00011396 68.1128L-0.00011398 69.8033L26.8677 108.134C26.9299 108.232 27.0183 108.31 27.1229 108.36C27.2275 108.409 27.344 108.429 27.459 108.415C27.5741 108.402 27.683 108.357 27.7734 108.284C27.8638 108.212 27.9319 108.115 27.97 108.006L46.9648 53.4272C47.002 53.3185 47.0081 53.2015 46.9824 53.0894C46.9568 52.9774 46.9003 52.8747 46.8195 52.793C46.7386 52.7112 46.6366 52.6535 46.5248 52.6265C46.4129 52.5995 46.2958 52.6041 46.1865 52.6399L-0.00011396 68.1128Z" fill="url(#paint6_linear)" fill-opacity="0.3"/>
<path d="M103.879 105.062C104.648 105.325 105.047 104.159 104.28 103.896L0.200417 68.1441C0.135804 68.1214 0.0681996 68.1084 -0.000213182 68.1054L-0.000213197 69.3781L103.879 105.062Z" fill="url(#paint7_linear)" fill-opacity="0.3"/>
<path d="M46.0123 53.7053C46.6577 54.1883 47.3998 53.2223 46.7544 52.7224L-0.000274223 17.3402L-0.000274241 18.8858L46.0123 53.7053Z" fill="url(#paint8_linear)" fill-opacity="0.3"/>
<defs>
<linearGradient id="paint0_linear" x1="133.433" y1="24.4399" x2="96.2724" y2="24.4399" gradientUnits="userSpaceOnUse">
<stop stop-color="#92CFD0"/>
<stop offset="1" stop-color="#3B73B8"/>
</linearGradient>
<linearGradient id="paint1_linear" x1="127.088" y1="71.6709" x2="96.2709" y2="71.6709" gradientUnits="userSpaceOnUse">
<stop stop-color="#92CFD0"/>
<stop offset="1" stop-color="#3B73B8"/>
</linearGradient>
<linearGradient id="paint2_linear" x1="127.088" y1="34.6818" x2="45.7645" y2="34.6818" gradientUnits="userSpaceOnUse">
<stop stop-color="#92CFD0"/>
<stop offset="1" stop-color="#3B73B8"/>
</linearGradient>
<linearGradient id="paint3_linear" x1="97.5117" y1="26.9201" x2="45.7668" y2="26.9201" gradientUnits="userSpaceOnUse">
<stop stop-color="#92CFD0"/>
<stop offset="1" stop-color="#3B73B8"/>
</linearGradient>
<linearGradient id="paint4_linear" x1="96.5298" y1="1.28174" x2="92.6874" y2="1.28174" gradientUnits="userSpaceOnUse">
<stop stop-color="#92CFD0"/>
<stop offset="1" stop-color="#3B73B8"/>
</linearGradient>
<linearGradient id="paint5_linear" x1="104.693" y1="86.7994" x2="22.3946" y2="86.7994" gradientUnits="userSpaceOnUse">
<stop stop-color="#92CFD0"/>
<stop offset="1" stop-color="#3B73B8"/>
</linearGradient>
<linearGradient id="paint6_linear" x1="46.998" y1="80.5144" x2="-0.000114108" y2="80.5144" gradientUnits="userSpaceOnUse">
<stop stop-color="#92CFD0"/>
<stop offset="1" stop-color="#3B73B8"/>
</linearGradient>
<linearGradient id="paint7_linear" x1="104.693" y1="86.603" x2="-0.000213402" y2="86.603" gradientUnits="userSpaceOnUse">
<stop stop-color="#92CFD0"/>
<stop offset="1" stop-color="#3B73B8"/>
</linearGradient>
<linearGradient id="paint8_linear" x1="47.0029" y1="35.5885" x2="-0.000274441" y2="35.5885" gradientUnits="userSpaceOnUse">
<stop stop-color="#92CFD0"/>
<stop offset="1" stop-color="#3B73B8"/>
</linearGradient>
</defs>
</svg>
